/* XPM */
static char *_6e9d604475046b7fe725958a335e6b5[] = {
/* columns rows colors chars-per-pixel */
"32 32 4 1 ",
"  c black",
". c #282828",
"X c #747474",
"o c gray88",
/* pixels */
"                                ",
"                                ",
"                                ",
"                                ",
"                                ",
"              ....              ",
"              .oo.              ",
"              .oo.              ",
"              .oo.              ",
"              .oo.              ",
"              .oo.              ",
"              .oo.              ",
"              .oo.              ",
"              .oo.              ",
"     .........XooX.........     ",
"     .oooooooooooooooooooo.     ",
"     .oooooooooooooooooooo.     ",
"     .........XooX.........     ",
"              .oo.              ",
"              .oo.              ",
"              .oo.              ",
"              .oo.              ",
"              .oo.              ",
"              .oo.              ",
"              .oo.              ",
"              .oo.              ",
"              ....              ",
"                                ",
"                                ",
"                                ",
"                                ",
"                                "
};
