/* XPM */
static char *_4fce08af8864302da4ec02749638813[] = {
/* columns rows colors chars-per-pixel */
"64 64 2 1 ",
"  c gray13",
". c #D94E4E",
/* pixels */
"................................................................",
"................................................................",
"................................................................",
"................................................................",
"................................................................",
"................................................................",
"................................................................",
"................................................................",
"................................................................",
"................................................................",
"................................................................",
"................................................................",
"................................................................",
"................................................................",
"................................................................",
"................................................................",
"................  ..............................................",
".................   ............................................",
"................. ..  ..........................................",
".................. ...  ........................................",
".................. .....  ......................................",
"................... ......  ....................................",
"................... ........  ..................................",
".................... .........  ................................",
".................... ...........  ..............................",
"..................... ............  ............................",
"..................... ..............  ..........................",
"...................... ...............  ........................",
"...................... .................  .........      .......",
"....................... ..................  ....... ............",
"....................... ....................  ..... ............",
"........................ .....................  ...    .........",
"........................                        ...    .........",
".......................                       ..... ............",
".......................                     ....... ............",
"......................                    .........      .......",
"......................                  ........................",
".....................                 ..........................",
".....................               ............................",
"....................              ..............................",
"....................            ................................",
"...................           ..................................",
"...................         ....................................",
"..................        ......................................",
"..................      ........................................",
".................     ..........................................",
".................   ............................................",
"................  ..............................................",
"................................................................",
"................................................................",
"................................................................",
"................................................................",
"................................................................",
"................................................................",
"................................................................",
"................................................................",
"................................................................",
"................................................................",
"................................................................",
"................................................................",
"................................................................",
"................................................................",
"................................................................",
"................................................................"
};
