/* XPM */
static char *bc34eb3a8bdc4c6abdfe5977a41210e4[] = {
/* columns rows colors chars-per-pixel */
"64 64 2 1 ",
"  c gray13",
". c #6D88AB",
/* pixels */
"................................................................",
"................................................................",
"................................................................",
"................................................................",
"................................................................",
".............................   .. .............................",
".............................   .. .............................",
"............................. . .. .............................",
"............................. .  . .............................",
"............................. .  . .............................",
"............................. .. . .............................",
"............................. ..   .............................",
"............................. ..   .............................",
"................................................................",
"................................................................",
"................................................................",
"...............................  ...............................",
"...............................  ...............................",
".............................. .  ..............................",
".............................. .  ..............................",
"............................. ..   .............................",
"............................. ..   .............................",
"............................ ...    ............................",
"............................ ...    ............................",
"........................... ....     ...........................",
"........................... ....     ...........................",
".......................... .....      ..........................",
".......................... .....      ..........................",
"......................... ......       .........................",
"......................... ......       .........................",
"........................ .......        ........................",
"........................ .......        ........................",
"....................... ........         .......................",
"....................... ........         .......................",
"...................... .........          ......................",
"...................... .........          ......................",
"..................... ..........           .....................",
"..................... ..........           .....................",
".................... ...........            ....................",
".................... ..........             ....................",
"................... .........  ..            ...................",
"................... .......  ......          ...................",
".................. ......  ..........         ..................",
".................. ....  ..............       ..................",
"................. ...  ..................      .................",
"................. .  ......................    .................",
"................   ..........................   ................",
"................ .............................. ................",
"................................................................",
"................................................................",
"................................................................",
"................................................................",
"................................................................",
"................................................................",
"................................................................",
"................................................................",
"................................................................",
"................................................................",
"................................................................",
"................................................................",
"................................................................",
"................................................................",
"................................................................",
"................................................................"
};
