/* XPM */
static char *_b118410e97142effd4afe3f11a4d800[] = {
/* columns rows colors chars-per-pixel */
"64 64 2 1 ",
"  c gray13",
". c #EDEDED",
/* pixels */
"................................................................",
"................................................................",
"................................................................",
"................................................................",
"................................................................",
"................................................................",
"................................................................",
"................................................................",
"................................................................",
"................................................................",
"................................................................",
"................................................................",
"................................................................",
"................................................................",
"................................................................",
"................................................................",
"................ .............................. ................",
"................   ..........................   ................",
".................    ......................  . .................",
".................      ..................  ... .................",
"..................       ..............  .... ..................",
"..................         ..........  ...... ..................",
"...................          ......  ....... ...................",
"...................            ..  ......... ...................",
"....................             .......... ....................",
"....................            ........... ....................",
".....................           .......... .....................",
".....................           .......... .....................",
"......................          ......... ......................",
"......................          ......... ......................",
".......................         ........ .......................",
".......................         ........ .......................",
"........................        ....... ........................",
"........................        ....... ........................",
".........................       ...... .........................",
".........................       ...... .........................",
"..........................      ..... ..........................",
"..........................      ..... ..........................",
"...........................     .... ...........................",
"...........................     .... ...........................",
"............................    ... ............................",
"............................    ... ............................",
".............................   .. .............................",
".............................   .. .............................",
"..............................  . ..............................",
"..............................  . ..............................",
"...............................  ...............................",
"...............................  ...............................",
"................................................................",
"................................................................",
"................................................................",
".............................      .............................",
"............................. ..................................",
"............................. ..................................",
".............................      .............................",
".............................      .............................",
".................................. .............................",
".................................. .............................",
".............................      .............................",
"................................................................",
"................................................................",
"................................................................",
"................................................................",
"................................................................"
};
