/* XPM */
static char *_fbe964dcfed487ade6f314e48d030be[] = {
/* columns rows colors chars-per-pixel */
"64 64 6 1 ",
"  c black",
". c #272727",
"X c #CF3636",
"o c #CFAB36",
"O c #A4A4A4",
"+ c gray87",
/* pixels */
"                                                                ",
"                                                                ",
"                                                                ",
"                                                                ",
"                                                                ",
"                                                                ",
"                                                                ",
"                                                                ",
"                                                                ",
"                                                                ",
"                                                                ",
"                                                                ",
"                                                                ",
"                                                                ",
"                                                                ",
"                                                                ",
"                                                                ",
"                                                                ",
"                             .. .. ..                           ",
"                             .o.oo.o.                           ",
"                             .oooooo.                           ",
"                             .oooooo.                           ",
"                           ...++++++...                         ",
"                         ..++++++++++++..                       ",
"                        .++++++++++++++++.                      ",
"                       .++++++++++++++++++.                     ",
"                      .O+++++++++++++++++++.                    ",
"                      .O+++++++++++++++++++.                    ",
"                     .OO++++++++++++++++++++.                   ",
"                     .OO++++++++.++++..+++.+.                   ",
"                     .OO++++++++O....OO...++.                   ",
"                    .OOO++++++++OOOOOOOOOO+++.                  ",
"                    .OOO+++++++++++OO++OO++++.                  ",
"                    .OOOO++++++++++.+++.+++++.                  ",
"                    .OOOOO+++++++++..++..++++.                  ",
"                    .OO.OOO+++++.++++++++++.+.                  ",
"                    ...OOOOO++++X..++++++..++.                  ",
"                 ...O.OOOOOOO+++X.........X+.                   ",
"                 .OO.OOOOOOOOOO+XX.XXXXX..X+.                   ",
"                 .OO.OOOOOOOOOOOOX.XXXXXX.X+.                   ",
"                  .OO..OOOO..OOOOXXXXXXXXXO.                    ",
"                  ..OOO....OOOOOOOXXXXXXXOO.                    ",
"                   ..OOOO.OOOOOOOOOOOXXXOO.                     ",
"                    ....O.OOOOOOOOOOOOOO..                      ",
"                        ..OOOOOOOOOOOO..                        ",
"                          ...OOOOOO...                          ",
"                             ......                             ",
"                                                                ",
"                                                                ",
"                                                                ",
"                                                                ",
"                                                                ",
"                                                                ",
"                                                                ",
"                                                                ",
"                                                                ",
"                                                                ",
"                                                                ",
"                                                                ",
"                                                                ",
"                                                                ",
"                                                                ",
"                                                                ",
"                                                                "
};
