/* XPM */
static char *_92aeb5dd0ea4dd1c3c520b609161df6[] = {
/* columns rows colors chars-per-pixel */
"64 64 2 1 ",
"  c gray13",
". c #5EC439",
/* pixels */
"................................................................",
"................................................................",
"................................................................",
"................................................................",
"................................................................",
"................................................................",
"................................................................",
"................................................................",
"................................................................",
"................................................................",
"................................................................",
"................................................................",
"................................................................",
"................................................................",
"................................................................",
"................................................................",
"..............................................  ................",
"............................................   .................",
"..........................................     .................",
"........................................      ..................",
"......................................        ..................",
"....................................         ...................",
"..................................           ...................",
"................................            ....................",
"..............................              ....................",
"............................               .....................",
"..........................                 .....................",
"........................                  ......................",
"....... .... .........                    ......................",
"....... .... .......                     .......................",
"....... .... .....                       .......................",
"....... .  . ...                        ........................",
"....... .  . ...  ..................... ........................",
"....... .  . .....  .................... .......................",
"....... .  . .......  .................. .......................",
".......      .........  ................. ......................",
"........................  ............... ......................",
"..........................  .............. .....................",
"............................  ............ .....................",
"..............................  ........... ....................",
"................................  ......... ....................",
"..................................  ........ ...................",
"....................................  ...... ...................",
"......................................  ..... ..................",
"........................................  ... ..................",
"..........................................  .. .................",
"............................................   .................",
"..............................................  ................",
"................................................................",
"................................................................",
"................................................................",
"................................................................",
"................................................................",
"................................................................",
"................................................................",
"................................................................",
"................................................................",
"................................................................",
"................................................................",
"................................................................",
"................................................................",
"................................................................",
"................................................................",
"................................................................"
};
